<svg xmlns="http://www.w3.org/2000/svg" height="48" viewBox="0 -960 960 960" width="48"><path d="M479.579-329.065q-7.287 0-14.683-2.735-7.395-2.736-12.57-8.983L291.043-502.304q-11.717-10.842-11.33-26.969.387-16.127 12.7-27.799 10.965-11.617 27.294-11.099 16.328.519 28.206 11.236l93.174 94.696v-316.804q0-15.941 11.338-27.167 11.338-11.225 27.554-11.225 16.217 0 27.315 11.225 11.097 11.226 11.097 27.167v316.804l94.935-94.696q11.145-10.717 26.628-10.494 15.484.223 27.577 10.997 11.143 11.497 11.143 27.91t-11.478 28.218L506.913-340.783q-5.139 6.247-12.627 8.983-7.488 2.735-14.707 2.735Zm-259.47 186.261q-30.746 0-54.025-23.28-23.28-23.279-23.28-54.025v-104.848q0-15.635 11.338-26.894 11.338-11.258 27.555-11.258 16.216 0 27.314 11.258 11.098 11.259 11.098 26.894v104.848h519.782v-104.848q0-15.635 11.506-26.894 11.505-11.258 27.485-11.258 16.315 0 27.434 11.258 11.119 11.259 11.119 26.894v104.848q0 30.746-23.35 54.025-23.349 23.28-54.194 23.28H220.109Z"/></svg>