<svg xmlns="http://www.w3.org/2000/svg" height="40" viewBox="0 -960 960 960" width="40"><path d="M192.319-104.173q-36.44 0-62.293-25.853t-25.853-62.293v-575.362q0-36.595 25.853-62.559t62.293-25.964h229.608q18.5 0 31.286 13.042Q466-830.121 466-811.604t-12.787 31.22q-12.786 12.703-31.286 12.703H192.319v575.362h575.362v-229.608q0-18.5 12.82-31.286Q793.321-466 811.838-466t31.441 12.787q12.925 12.786 12.925 31.286v229.608q0 36.44-25.964 62.293t-62.559 25.853H192.319ZM767.681-705.84 429.189-366.971q-13.163 12.869-30.639 12.253-17.477-.616-30.347-13.485-12.869-12.87-12.869-30.587 0-17.718 12.869-30.588l338.304-338.303H576.739q-18.501 0-31.287-12.82-12.786-12.82-12.786-31.337t12.786-31.441q12.786-12.925 31.287-12.925h279.465v279.465q0 18.501-13.042 31.287-13.041 12.786-31.558 12.786t-31.22-12.786q-12.703-12.786-12.703-31.287V-705.84Z"/></svg>